<?xml version="1.0" standalone="no"?><!DOCTYPE svg PUBLIC "-//W3C//DTD SVG 1.1//EN" "http://www.w3.org/Graphics/SVG/1.1/DTD/svg11.dtd"><svg t="1609165099905" class="icon" viewBox="0 0 1024 1024" version="1.1" xmlns="http://www.w3.org/2000/svg" p-id="679" width="200" height="200" xmlns:xlink="http://www.w3.org/1999/xlink"><defs><style type="text/css"></style></defs><path d="M231.936 283.648C342.016 227.84 471.552 213.504 591.36 239.104 604.672 242.688 619.008 244.224 630.784 251.904 538.112 246.784 443.392 257.536 355.84 288.768 281.6 315.904 211.968 367.104 182.784 442.368 162.816 485.888 165.888 539.648 194.56 578.048 232.448 632.32 295.936 659.968 355.84 682.496 485.376 707.584 625.664 708.608 747.008 649.728 771.584 636.416 799.232 624.64 815.616 600.576 837.632 572.416 857.6 538.624 851.968 501.76 846.848 467.968 817.664 444.416 789.504 428.544 761.856 414.72 733.184 401.408 701.952 398.848 613.888 389.632 518.656 392.704 440.832 440.32 432.64 445.952 419.328 451.584 421.376 463.872 454.656 481.28 486.912 501.248 521.728 516.096 563.2 493.568 603.136 467.968 644.608 444.416 658.944 439.296 675.84 439.296 688.128 449.536 707.072 463.36 736.768 470.528 739.328 497.664 743.424 515.072 730.624 529.408 716.288 537.6 669.184 563.2 621.568 588.8 574.464 614.912 556.544 624.64 538.624 637.952 517.12 637.44 501.248 637.952 486.912 630.784 473.6 623.104 419.84 590.848 366.592 558.592 313.344 526.336 295.936 516.096 280.064 501.248 274.432 481.28 268.8 453.12 288.768 428.032 307.2 409.6 370.176 348.16 456.192 317.44 541.696 306.176 640 293.376 742.912 304.64 834.048 343.552 883.712 366.592 932.864 399.872 957.952 450.048 976.384 486.4 976.896 530.432 963.072 568.32 948.224 611.84 918.528 649.216 887.808 683.008 819.712 742.912 734.208 780.288 645.12 795.136 542.208 812.544 436.224 801.792 334.848 780.288 307.712 773.12 278.528 769.536 253.44 755.2 186.88 721.92 121.856 678.4 82.432 613.888 52.224 564.224 45.568 500.736 68.096 446.976 98.304 373.248 162.304 318.976 231.936 283.648Z" p-id="680" fill="#4e6ef2"></path></svg>